<?xml version="1.0" encoding="UTF-8" standalone="no" ?>
<!DOCTYPE svg PUBLIC "-//W3C//DTD SVG 1.1//EN" "http://www.w3.org/Graphics/SVG/1.1/DTD/svg11.dtd">
<svg xmlns="http://www.w3.org/2000/svg" xmlns:xlink="http://www.w3.org/1999/xlink" version="1.1" width="1280" height="1024" viewBox="0 0 1280 1024" xml:space="preserve">
<desc>Created with Fabric.js 4.4.0</desc>
<defs>
</defs>
<g transform="matrix(1 0 0 1 640 512)" id="background-logo"  >
<rect style="stroke: none; stroke-width: 0; stroke-dasharray: none; stroke-linecap: butt; stroke-dashoffset: 0; stroke-linejoin: miter; stroke-miterlimit: 4; fill: rgb(255,255,255); fill-opacity: 0; fill-rule: nonzero; opacity: 1;"  paint-order="stroke"  x="-640" y="-512" rx="0" ry="0" width="1280" height="1024" />
</g>
<g transform="matrix(1.9211538461538462 0 0 1.9211538461538462 640 365.8959046439271)" id="logo-logo"  >
<g style=""  paint-order="stroke"   >
		<g transform="matrix(1.6956104650816124 0 0 1.6956104650816124 0 0)"  >
<path style="stroke: none; stroke-width: 1; stroke-dasharray: none; stroke-linecap: butt; stroke-dashoffset: 0; stroke-linejoin: miter; stroke-miterlimit: 4; fill: rgb(94,158,247); fill-rule: nonzero; opacity: 1;"  paint-order="stroke"  transform=" translate(-162.49999614999996, -130.000002)" d="M 162.8200378 121.3048325 C 154.6330719 121.3048325 146.60040279999998 121.80654150000001 138.9140472 122.7616501 C 139.1438751 117.7529984 139.6122894 112.8759918 140.3058319 108.2011414 C 140.3517914 108.1958313 140.3974457 108.1900406 140.44340509999998 108.1847306 C 140.44340509999998 108.1848832 140.44340509999998 108.1850434 140.44340509999998 108.18519599999999 C 141.84675589999998 98.7341843 144.169403 90.11069499999999 147.30911249999997 82.91244509999999 C 151.73397819999997 72.76789099999999 157.34001149999997 66.67249299999999 162.34037779999997 66.54506689999998 C 162.42010499999998 66.54460149999998 162.49937439999997 66.54241189999998 162.57926939999996 66.54209909999999 C 167.59994509999996 66.60557569999999 173.24256899999995 72.71347819999998 177.69119259999997 82.91244519999998 C 180.83090209999997 90.11116799999998 183.15354919999996 98.73527539999998 184.55689999999996 108.18707289999998 C 189.66592399999996 108.76836409999997 194.62985229999995 109.54836289999997 199.39303589999994 110.51472489999998 C 199.39303589999994 110.51488509999997 199.39303589999994 110.51519789999998 199.39303589999994 110.51535049999998 C 197.91528319999995 98.06940479999999 195.02322389999995 86.60952009999998 190.89822389999995 77.15177929999999 C 190.11354069999996 75.35288249999999 189.28897099999995 73.64936079999998 188.43112179999994 72.03306589999998 C 206.66415399999994 80.18579869999998 220.37507629999993 96.69482429999998 224.66297909999994 116.66328439999998 C 230.38299559999996 118.79144299999999 235.58801269999995 121.22337349999998 240.25300599999994 123.94126899999998 C 238.83715819999995 105.42493449999998 230.94895939999995 88.20814519999998 217.67875669999995 74.93778999999998 C 217.37467959999995 74.63385779999997 217.06558229999996 74.33711249999998 216.75758359999995 74.03881079999998 L 216.85920709999994 73.93328099999998 C 202.27478019999992 59.87354279999998 183.08335869999993 52.130435999999975 162.82003779999994 52.130435999999975 C 162.78501889999993 52.130435999999975 162.75015249999993 52.13153079999997 162.71513359999994 52.13168719999997 C 162.68214409999993 52.13153079999997 162.64945979999993 52.130435999999975 162.61647029999995 52.130435999999975 C 162.59053039999995 52.130435999999975 162.56457519999995 52.13137439999998 162.53861999999995 52.13137439999998 C 162.52563479999995 52.13137439999998 162.51296999999994 52.130435999999975 162.50015259999995 52.130435999999975 C 162.46215819999995 52.130435999999975 162.42463689999994 52.13309099999997 162.38665769999994 52.13324739999997 C 162.37945559999994 52.13324739999997 162.37226869999995 52.133403799999975 162.36491389999995 52.13356019999998 L 162.36491389999995 52.130435999999975 C 162.28298949999996 52.130435999999975 162.20185849999996 52.13559349999998 162.11993399999994 52.13653189999997 C 141.50608819999994 52.26457979999997 122.14471429999995 60.34757999999997 107.55450429999993 74.93778999999998 C 92.84687799999993 89.64556889999997 84.74698629999993 109.20018009999998 84.74698629999993 129.99992379999998 C 84.74698629999993 150.79966749999997 92.84687799999993 170.35458379999997 107.55450429999993 185.06205759999997 C 122.20756519999993 199.71527109999997 141.67274469999992 207.80702219999998 162.38603199999994 207.86674509999997 C 162.42401109999994 207.8669129 162.46170029999993 207.869568 162.49984729999994 207.869568 C 162.50343309999994 207.869568 162.50703419999994 207.8692476 162.51063529999993 207.8692476 L 162.51063529999993 207.869568 C 162.52235409999994 207.869568 162.53392019999993 207.86869819999998 162.54565419999994 207.86869819999998 C 162.56925949999996 207.86869819999998 162.59286489999994 207.869568 162.61647019999995 207.869568 C 162.65055829999994 207.869568 162.68432599999994 207.8683931 162.71841419999996 207.86831679999997 C 162.75233449999996 207.86839309999996 162.78611739999997 207.869568 162.82003769999994 207.869568 C 180.87593059999995 207.869568 198.45451339999994 201.5995332 212.31771839999993 190.21438609999998 C 226.02004989999995 178.96110549999997 235.51702869999994 163.2312165 239.05885299999994 145.92218029999998 L 240.04930099999993 141.08380139999997 L 235.25921619999994 138.00944529999998 C 218.8263245 127.5495377 191.7462463 121.3048325 162.8200378 121.3048325 z M 200.2613831 139.6748199 C 209.1769104 141.7062072 217.1001282 144.469284 223.5168152 147.8506927 C 218.2545777 165.77432249999998 205.2792511 180.4290161 188.4451904 187.9605255 C 189.3016357 186.34594729999998 190.1251068 184.6446991 190.9087066 182.84822079999998 C 196.0977783 170.9511108 199.3367615 155.8866425 200.2613831 139.6748199 z M 185.9651031 137.1611176 C 185.73620599999998 142.2022858 185.2659301 147.1103974 184.5675354 151.81402590000002 C 184.5637817 151.81433110000003 184.5600281 151.81480410000003 184.5562744 151.81527710000003 C 184.5562744 151.81510930000002 184.5562744 151.81495670000004 184.5562744 151.81480410000003 C 183.1529236 161.26582340000004 180.8302765 169.88929750000003 177.69056700000002 177.08755500000004 C 173.2394562 187.29309090000004 167.5921326 193.40255740000003 162.5692596 193.45820620000003 C 162.5051574 193.45797730000004 162.44105530000002 193.45664980000004 162.3769531 193.45625310000003 C 157.367218 193.35815430000002 151.7444458 187.25704960000002 147.3088073 177.08755500000004 C 144.1687774 169.88883980000003 141.8461303 161.26472480000004 140.4427795 151.81292730000004 C 135.3340759 151.23164370000003 130.3701477 150.45164500000004 125.6069564 149.48527530000004 C 125.6069564 149.48512270000003 125.6066436 149.48480230000004 125.6066436 149.48464970000003 C 127.0844115 161.93058780000004 129.9764709 173.39047250000004 134.101776 182.84822090000003 C 134.8450316 184.55244450000004 135.6242522 186.17068490000003 136.4334868 187.71130380000002 C 119.9005431 180.12211620000002 107.1669234 165.63235480000003 101.9442442 147.95169080000002 C 116.513191 140.23625200000004 138.75817849999999 135.7135316 162.8200377 135.7135316 C 170.8036041 135.7135315 178.590332 136.2142944 185.9651031 137.1611176 z M 99.4367905 133.1590118 C 99.3852005 132.1121368 99.3592453 131.0593109 99.3592453 129.9999237 C 99.3592453 104.48843380000001 114.4929047 82.44825740000002 136.252594 72.37593080000002 C 135.4599304 73.89044190000001 134.69619749999998 75.47983550000002 133.9668427 77.15177920000002 C 128.262146 90.23107910000002 124.9145051 107.13831330000002 124.4081116 125.18983460000001 C 115.1515884 127.1669617 106.6872559 129.8557739 99.4367905 133.1590118 z" stroke-linecap="round" />
</g>
</g>
</g>
<g transform="matrix(1.9211538461538462 0 0 1.9211538461538462 640.2520901642507 688.9661667657185)" id="text-logo-path-group"  >
<g style=""  paint-order="stroke"   >
		<g transform="matrix(1 0 0 1 0 0)" id="text-logo-path-0"  >
<path style="stroke: none; stroke-width: 0; stroke-dasharray: none; stroke-linecap: butt; stroke-dashoffset: 0; stroke-linejoin: miter; stroke-miterlimit: 4; fill: rgb(94,158,247); fill-rule: nonzero; opacity: 1;"  paint-order="stroke"  transform=" translate(-263.2094856184495, 16.814999999999998)" d="M 14.94 0.49 Q 11.12 0.49 8.02 -0.73 Q 4.92 -1.95 3.09 -4.55 Q 1.26 -7.14 1.33 -11.07 L 1.33 -11.07 L 9.05 -11.07 Q 9.05 -8.4 10.75 -6.97 Q 12.44 -5.55 15.18 -5.55 L 15.18 -5.55 Q 17.29 -5.55 18.64 -6.45 Q 19.99 -7.34 19.99 -9.46 L 19.99 -9.46 Q 19.99 -10.89 19.11 -11.75 Q 18.24 -12.6 16.92 -13.05 Q 15.61 -13.5 13.21 -14.04 L 13.21 -14.04 Q 11.99 -14.29 10.62 -14.64 L 10.62 -14.64 Q 8.2 -15.3 6.45 -16.24 Q 4.69 -17.18 3.54 -18.98 Q 2.38 -20.78 2.38 -23.65 L 2.38 -23.65 Q 2.38 -27.13 4.07 -29.49 Q 5.75 -31.85 8.47 -32.98 Q 11.19 -34.12 14.29 -34.12 L 14.29 -34.12 Q 17.41 -34.12 20.18 -32.97 Q 22.96 -31.83 24.71 -29.42 Q 26.46 -27.02 26.46 -23.4 L 26.46 -23.4 L 19.18 -23.4 Q 19 -25.72 17.61 -26.91 Q 16.22 -28.1 13.99 -28.1 L 13.99 -28.1 Q 12.08 -28.1 10.94 -27.22 Q 9.79 -26.35 9.79 -24.68 L 9.79 -24.68 Q 9.79 -23.31 10.6 -22.52 Q 11.41 -21.72 12.66 -21.32 Q 13.9 -20.91 16.13 -20.46 L 16.13 -20.46 L 17.16 -20.24 Q 20.19 -19.56 22.36 -18.58 Q 24.53 -17.59 25.96 -15.59 Q 27.4 -13.59 27.4 -10.29 L 27.4 -10.29 Q 27.4 -6.36 25.68 -3.95 Q 23.97 -1.55 21.18 -0.53 Q 18.4 0.49 14.94 0.49 L 14.94 0.49 Z M 47.57 0.49 Q 42.36 0.49 38.45 -1.66 Q 34.54 -3.82 32.43 -7.76 Q 30.32 -11.7 30.32 -16.91 L 30.32 -16.91 Q 30.32 -22.17 32.47 -26.05 Q 34.61 -29.94 38.53 -32.03 Q 42.45 -34.12 47.62 -34.12 L 47.62 -34.12 Q 52.85 -34.12 56.75 -32.01 Q 60.64 -29.9 62.77 -25.99 Q 64.89 -22.08 64.89 -16.87 L 64.89 -16.87 Q 64.89 -11.61 62.73 -7.68 Q 60.58 -3.75 56.66 -1.63 Q 52.74 0.49 47.57 0.49 L 47.57 0.49 Z M 37.73 -16.91 Q 37.73 -13.75 39.04 -11.39 Q 40.34 -9.03 42.59 -7.78 Q 44.83 -6.54 47.57 -6.54 L 47.57 -6.54 Q 50.36 -6.54 52.61 -7.78 Q 54.87 -9.03 56.17 -11.38 Q 57.48 -13.72 57.48 -16.91 L 57.48 -16.91 Q 57.48 -20.04 56.17 -22.35 Q 54.87 -24.66 52.61 -25.89 Q 50.36 -27.11 47.57 -27.11 L 47.57 -27.11 Q 44.83 -27.11 42.59 -25.9 Q 40.34 -24.68 39.04 -22.37 Q 37.73 -20.06 37.73 -16.91 L 37.73 -16.91 Z M 85.8 0.49 Q 80.59 0.49 76.68 -1.66 Q 72.77 -3.82 70.65 -7.76 Q 68.53 -11.7 68.53 -16.91 L 68.53 -16.91 Q 68.53 -22.17 70.68 -26.05 Q 72.84 -29.94 76.76 -32.03 Q 80.68 -34.12 85.85 -34.12 L 85.85 -34.12 Q 89.73 -34.12 93.04 -32.69 Q 96.36 -31.27 98.59 -28.6 Q 100.83 -25.94 101.52 -22.35 L 101.52 -22.35 L 93.71 -22.35 Q 93.24 -23.79 92.09 -24.86 Q 90.94 -25.94 89.3 -26.53 Q 87.67 -27.11 85.8 -27.11 L 85.8 -27.11 Q 83.06 -27.11 80.81 -25.9 Q 78.57 -24.68 77.27 -22.36 Q 75.96 -20.04 75.96 -16.87 L 75.96 -16.87 Q 75.96 -13.7 77.22 -11.34 Q 78.48 -8.98 80.77 -7.73 Q 83.06 -6.47 86.09 -6.47 L 86.09 -6.47 Q 89.15 -6.47 91.39 -7.85 Q 93.64 -9.23 94.45 -11.88 L 94.45 -11.88 L 86.38 -11.88 L 86.38 -17.95 L 102.42 -17.95 L 102.42 -17.03 Q 102.42 -11.25 100.27 -7.31 Q 98.11 -3.37 94.35 -1.44 Q 90.58 0.49 85.8 0.49 L 85.8 0.49 Z M 107.12 0 L 107.12 -33.62 L 114.03 -33.62 L 128.09 -12.67 L 128.09 -33.62 L 135.51 -33.62 L 135.51 0 L 128.59 0 L 114.53 -20.96 L 114.53 0 L 107.12 0 Z M 157.79 0.49 Q 152.58 0.49 148.67 -1.66 Q 144.76 -3.82 142.65 -7.76 Q 140.54 -11.7 140.54 -16.91 L 140.54 -16.91 Q 140.54 -22.17 142.68 -26.05 Q 144.83 -29.94 148.75 -32.03 Q 152.67 -34.12 157.83 -34.12 L 157.83 -34.12 Q 163.07 -34.12 166.96 -32.01 Q 170.86 -29.9 172.98 -25.99 Q 175.11 -22.08 175.11 -16.87 L 175.11 -16.87 Q 175.11 -11.61 172.95 -7.68 Q 170.79 -3.75 166.87 -1.63 Q 162.95 0.49 157.79 0.49 L 157.79 0.49 Z M 147.95 -16.91 Q 147.95 -13.75 149.25 -11.39 Q 150.56 -9.03 152.8 -7.78 Q 155.05 -6.54 157.79 -6.54 L 157.79 -6.54 Q 160.57 -6.54 162.83 -7.78 Q 165.09 -9.03 166.39 -11.38 Q 167.69 -13.72 167.69 -16.91 L 167.69 -16.91 Q 167.69 -20.04 166.39 -22.35 Q 165.09 -24.66 162.83 -25.89 Q 160.57 -27.11 157.79 -27.11 L 157.79 -27.11 Q 155.05 -27.11 152.8 -25.9 Q 150.56 -24.68 149.25 -22.37 Q 147.95 -20.06 147.95 -16.91 L 147.95 -16.91 Z M 180.16 0 L 180.16 -33.62 L 187.08 -33.62 L 201.14 -12.67 L 201.14 -33.62 L 208.55 -33.62 L 208.55 0 L 201.63 0 L 187.57 -20.96 L 187.57 0 L 180.16 0 Z M 240.67 0.49 Q 235.46 0.49 231.55 -1.66 Q 227.64 -3.82 225.52 -7.76 Q 223.4 -11.7 223.4 -16.91 L 223.4 -16.91 Q 223.4 -22.17 225.55 -26.05 Q 227.71 -29.94 231.62 -32.03 Q 235.53 -34.12 240.67 -34.12 L 240.67 -34.12 Q 244.55 -34.12 247.88 -32.69 Q 251.2 -31.27 253.45 -28.6 Q 255.7 -25.94 256.39 -22.35 L 256.39 -22.35 L 248.58 -22.35 Q 248.13 -23.79 246.97 -24.86 Q 245.81 -25.94 244.17 -26.53 Q 242.53 -27.11 240.67 -27.11 L 240.67 -27.11 Q 237.93 -27.11 235.68 -25.9 Q 233.44 -24.68 232.13 -22.36 Q 230.83 -20.04 230.83 -16.87 L 230.83 -16.87 Q 230.83 -13.75 232.13 -11.4 Q 233.44 -9.05 235.67 -7.79 Q 237.91 -6.54 240.67 -6.54 L 240.67 -6.54 Q 243.57 -6.54 245.75 -7.82 Q 247.92 -9.1 248.58 -11.37 L 248.58 -11.37 L 256.44 -11.37 Q 255.74 -7.75 253.46 -5.06 Q 251.18 -2.38 247.83 -0.94 Q 244.49 0.49 240.67 0.49 L 240.67 0.49 Z M 276.09 0.49 Q 270.88 0.49 266.97 -1.66 Q 263.06 -3.82 260.95 -7.76 Q 258.84 -11.7 258.84 -16.91 L 258.84 -16.91 Q 258.84 -22.17 260.98 -26.05 Q 263.13 -29.94 267.05 -32.03 Q 270.97 -34.12 276.13 -34.12 L 276.13 -34.12 Q 281.37 -34.12 285.27 -32.01 Q 289.16 -29.9 291.28 -25.99 Q 293.41 -22.08 293.41 -16.87 L 293.41 -16.87 Q 293.41 -11.61 291.25 -7.68 Q 289.09 -3.75 285.18 -1.63 Q 281.26 0.49 276.09 0.49 L 276.09 0.49 Z M 266.25 -16.91 Q 266.25 -13.75 267.55 -11.39 Q 268.86 -9.03 271.1 -7.78 Q 273.35 -6.54 276.09 -6.54 L 276.09 -6.54 Q 278.88 -6.54 281.13 -7.78 Q 283.39 -9.03 284.69 -11.38 Q 286 -13.72 286 -16.91 L 286 -16.91 Q 286 -20.04 284.69 -22.35 Q 283.39 -24.66 281.13 -25.89 Q 278.88 -27.11 276.09 -27.11 L 276.09 -27.11 Q 273.35 -27.11 271.1 -25.9 Q 268.86 -24.68 267.55 -22.37 Q 266.25 -20.06 266.25 -16.91 L 266.25 -16.91 Z M 298.46 0 L 298.46 -33.62 L 305.38 -33.62 L 319.44 -12.67 L 319.44 -33.62 L 326.85 -33.62 L 326.85 0 L 319.93 0 L 305.87 -20.96 L 305.87 0 L 298.46 0 Z M 345.43 0.49 Q 341.61 0.49 338.51 -0.73 Q 335.41 -1.95 333.58 -4.55 Q 331.75 -7.14 331.82 -11.07 L 331.82 -11.07 L 339.54 -11.07 Q 339.54 -8.4 341.24 -6.97 Q 342.93 -5.55 345.67 -5.55 L 345.67 -5.55 Q 347.79 -5.55 349.13 -6.45 Q 350.48 -7.34 350.48 -9.46 L 350.48 -9.46 Q 350.48 -10.89 349.6 -11.75 Q 348.73 -12.6 347.41 -13.05 Q 346.1 -13.5 343.7 -14.04 L 343.7 -14.04 Q 342.48 -14.29 341.11 -14.64 L 341.11 -14.64 Q 338.69 -15.3 336.94 -16.24 Q 335.18 -17.18 334.03 -18.98 Q 332.87 -20.78 332.87 -23.65 L 332.87 -23.65 Q 332.87 -27.13 334.56 -29.49 Q 336.24 -31.85 338.96 -32.98 Q 341.68 -34.12 344.78 -34.12 L 344.78 -34.12 Q 347.9 -34.12 350.67 -32.97 Q 353.45 -31.83 355.2 -29.42 Q 356.95 -27.02 356.95 -23.4 L 356.95 -23.4 L 349.67 -23.4 Q 349.49 -25.72 348.1 -26.91 Q 346.71 -28.1 344.48 -28.1 L 344.48 -28.1 Q 342.57 -28.1 341.43 -27.22 Q 340.28 -26.35 340.28 -24.68 L 340.28 -24.68 Q 340.28 -23.31 341.09 -22.52 Q 341.9 -21.72 343.15 -21.32 Q 344.39 -20.91 346.62 -20.46 L 346.62 -20.46 L 347.65 -20.24 Q 350.68 -19.56 352.85 -18.58 Q 355.02 -17.59 356.46 -15.59 Q 357.89 -13.59 357.89 -10.29 L 357.89 -10.29 Q 357.89 -6.36 356.17 -3.95 Q 354.46 -1.55 351.67 -0.53 Q 348.89 0.49 345.43 0.49 L 345.43 0.49 Z M 375.5 0.49 Q 371.39 0.49 368.43 -1 Q 365.46 -2.49 363.9 -5.33 Q 362.34 -8.18 362.34 -12.13 L 362.34 -12.13 L 362.34 -33.62 L 369.75 -33.62 L 369.75 -12.51 Q 369.75 -9.52 371.05 -7.87 Q 372.36 -6.22 375.5 -6.22 L 375.5 -6.22 Q 378.71 -6.22 380.03 -7.87 Q 381.34 -9.52 381.34 -12.51 L 381.34 -12.51 L 381.34 -33.62 L 388.75 -33.62 L 388.75 -12.13 Q 388.75 -8.18 387.18 -5.33 Q 385.61 -2.49 382.63 -1 Q 379.66 0.49 375.5 0.49 L 375.5 0.49 Z M 395.33 0 L 395.33 -33.62 L 402.75 -33.62 L 402.75 -6.72 L 414.83 -6.72 L 414.83 0 L 395.33 0 Z M 422.15 0 L 422.15 -26.91 L 412.54 -26.91 L 412.54 -33.62 L 439.16 -33.62 L 439.16 -26.91 L 429.57 -26.91 L 429.57 0 L 422.15 0 Z M 443.2 0 L 443.2 -33.62 L 450.61 -33.62 L 450.61 0 L 443.2 0 Z M 457.91 0 L 457.91 -33.62 L 464.83 -33.62 L 478.89 -12.67 L 478.89 -33.62 L 486.3 -33.62 L 486.3 0 L 479.38 0 L 465.32 -20.96 L 465.32 0 L 457.91 0 Z M 508.49 0.49 Q 503.28 0.49 499.37 -1.66 Q 495.47 -3.82 493.34 -7.76 Q 491.22 -11.7 491.22 -16.91 L 491.22 -16.91 Q 491.22 -22.17 493.38 -26.05 Q 495.53 -29.94 499.45 -32.03 Q 503.37 -34.12 508.54 -34.12 L 508.54 -34.12 Q 512.42 -34.12 515.74 -32.69 Q 519.05 -31.27 521.28 -28.6 Q 523.52 -25.94 524.22 -22.35 L 524.22 -22.35 L 516.4 -22.35 Q 515.93 -23.79 514.78 -24.86 Q 513.64 -25.94 512 -26.53 Q 510.36 -27.11 508.49 -27.11 L 508.49 -27.11 Q 505.75 -27.11 503.51 -25.9 Q 501.26 -24.68 499.96 -22.36 Q 498.66 -20.04 498.66 -16.87 L 498.66 -16.87 Q 498.66 -13.7 499.91 -11.34 Q 501.17 -8.98 503.46 -7.73 Q 505.75 -6.47 508.79 -6.47 L 508.79 -6.47 Q 511.84 -6.47 514.09 -7.85 Q 516.33 -9.23 517.14 -11.88 L 517.14 -11.88 L 509.08 -11.88 L 509.08 -17.95 L 525.11 -17.95 L 525.11 -17.03 Q 525.11 -11.25 522.96 -7.31 Q 520.8 -3.37 517.04 -1.44 Q 513.28 0.49 508.49 0.49 L 508.49 0.49 Z" stroke-linecap="round" />
</g>
</g>
</g>
</svg>