<svg id="Calque_1" data-name="Calque 1" xmlns="http://www.w3.org/2000/svg" viewBox="0 0 101.06 101.06"><defs><style>.cls-1,.cls-2{fill:#fd0037;}.cls-2{stroke:#fd0037;stroke-miterlimit:10;stroke-width:4px;}</style></defs><path class="cls-1" d="M71.33,74.63h0a.21.21,0,0,0-.11.19v5.92L66.1,77.8a.22.22,0,0,0-.22,0h0a.21.21,0,0,0-.11.19v5.87L60.65,81a.22.22,0,0,0-.22,0h0a.21.21,0,0,0-.11.19v6.28h.43v-6l5.12,2.94a.22.22,0,0,0,.22,0,.21.21,0,0,0,.11-.19V78.31l5.12,2.94a.22.22,0,0,0,.22,0h0a.21.21,0,0,0,.11-.19V75.18l5.12,2.94.23-.37-5.45-3.13A.22.22,0,0,0,71.33,74.63Z" transform="translate(0 0)"/><path class="cls-1" d="M29.1,26.7h0a.21.21,0,0,0,.11-.19V20.63l5.12,2.94a.22.22,0,0,0,.22,0h0a.21.21,0,0,0,.11-.19V17.51l5.12,2.94a.22.22,0,0,0,.22,0h0a.21.21,0,0,0,.11-.19V14h-.43v5.91L34.48,17a.22.22,0,0,0-.22,0,.21.21,0,0,0-.11.19V23L29,20.06a.22.22,0,0,0-.22,0h0a.21.21,0,0,0-.11.19v5.88l-5.12-2.94-.21.37,5.45,3.13A.23.23,0,0,0,29.1,26.7Z" transform="translate(0 0)"/><path class="cls-1" d="M81.66,57l5.45,3.13.21-.37L82.2,56.82l5.11-3a.22.22,0,0,0,.08-.3.3.3,0,0,0-.08-.08L84.6,52l-2.4-1.38,5.11-3a.21.21,0,0,0,.11-.19h0a.21.21,0,0,0-.11-.19L84.6,45.7l-2.4-1.38,5.11-3L87.09,41,81.66,44.1a.21.21,0,0,0-.11.19h0a.21.21,0,0,0,.11.19L84.38,46l2.38,1.35-5.1,3a.21.21,0,0,0-.11.19h0a.21.21,0,0,0,.11.19l2.72,1.56,2.38,1.34-5.1,3a.21.21,0,0,0-.11.19h0A.19.19,0,0,0,81.66,57Z" transform="translate(0 0)"/><path class="cls-1" d="M18.91,50.73h0a.21.21,0,0,0-.11-.19L16.08,49,13.7,47.66l5.1-3a.21.21,0,0,0,.11-.19h0a.21.21,0,0,0-.11-.19l-5.47-3.11-.22.37,5.12,2.94-5.11,3a.22.22,0,0,0-.08.3.3.3,0,0,0,.08.08l2.71,1.53,2.4,1.38-5.11,3A.2.2,0,0,0,13,54h0a.21.21,0,0,0,.11.19l2.71,1.54L18.24,57l-5.11,3,.22.37,5.43-3.15a.21.21,0,0,0,.11-.19h0a.21.21,0,0,0-.11-.19l-2.72-1.56L13.69,54l5.11-3A.22.22,0,0,0,18.91,50.73Z" transform="translate(0 0)"/><path class="cls-1" d="M76.67,23.1l-5.11,3v-6a.21.21,0,0,0-.11-.19.22.22,0,0,0-.22,0l-2.67,1.58L66.17,23V17a.21.21,0,0,0-.11-.19h0a.22.22,0,0,0-.22,0l-2.68,1.58-2.39,1.39V13.89h-.44v6.28a.21.21,0,0,0,.11.19h0a.22.22,0,0,0,.22,0l2.72-1.58,2.36-1.38v5.9a.21.21,0,0,0,.11.19h0a.22.22,0,0,0,.22,0L68.79,22l2.35-1.39v5.9a.21.21,0,0,0,.11.19h0a.22.22,0,0,0,.22,0L76.9,23.5Z" transform="translate(0 0)"/><path class="cls-1" d="M40,81h0a.22.22,0,0,0-.22,0L37.1,82.58,34.74,84V78a.21.21,0,0,0-.11-.19h0a.22.22,0,0,0-.22,0l-2.72,1.58-2.36,1.41V75a.21.21,0,0,0-.11-.19h0a.22.22,0,0,0-.22,0l-5.43,3.15.22.37,5.11-3v5.91a.21.21,0,0,0,.11.19.22.22,0,0,0,.22,0l2.67-1.63,2.43-1.36V84.3a.21.21,0,0,0,.11.19h0a.22.22,0,0,0,.22,0L37.33,83l2.39-1.39v5.91h.43V81.14A.19.19,0,0,0,40,81Z" transform="translate(0 0)"/><path class="cls-1" d="M14.51,34.23a.45.45,0,0,0-.45.45h0v.56a.1.1,0,0,0-.09.06l-.31.31a.45.45,0,0,0,.54.72l.09-.09L14.6,36a.43.43,0,0,0,.11-.43.45.45,0,0,0,.23-.39v-.38l9,15.49-9,15.49v-.38a.45.45,0,0,0-.23-.39.43.43,0,0,0-.11-.43l-.27-.31a.42.42,0,0,0-.32-.13.44.44,0,0,0-.44.44v0a.42.42,0,0,0,.12.3l.31.31.09.06v.56a.45.45,0,0,0,.45.45h.17l-4,6.79h3.6a.33.33,0,0,0,.14,0,.33.33,0,0,0,.14,0H37L44.48,86V86a.44.44,0,0,0,.28.41L50.26,96l5.5-9.52A.44.44,0,0,0,56,86V86L63.51,73H85.92a.33.33,0,0,0,.14,0,.33.33,0,0,0,.14,0h3.63l-3.94-6.83a.49.49,0,0,0,.17,0,.45.45,0,0,0,.45-.45v-.56a.1.1,0,0,0,.09-.06l.31-.31a.45.45,0,0,0,0-.63.47.47,0,0,0-.64,0l-.31.31a.43.43,0,0,0-.11.43.45.45,0,0,0-.23.39v.38l-9-15.5,9-15.49v.38a.45.45,0,0,0,.23.39.43.43,0,0,0,.11.43l.31.31a.46.46,0,1,0,.73-.56l-.09-.09-.31-.31-.09-.06v-.56a.45.45,0,0,0-.45-.45h-.17l3.94-6.83H63.5L56,14.42v-.07a.44.44,0,0,0-.28-.41l-5.5-9.52L44.73,14a.43.43,0,0,0-.28.41v.07L37,27.41H14.65a.33.33,0,0,0-.14,0,.33.33,0,0,0-.14,0H10.73l3.94,6.83ZM50.33,87.12,40.59,70.26H60Zm-12.6-18.5H18.4l9.66-16.73h0l.22-.39c2.82,3.58,11.5,13.34,22,13.34s19.19-9.77,22-13.34l.22.39h0l9.66,16.73Zm0-36.75-9,15.6a10.43,10.43,0,0,0-.75,1L18.41,31.86H37.73Zm12.6-18.51,11.1,19.28L67,42.35c-4.12-3.78-10-7.69-16.7-7.69s-12.57,3.91-16.74,7.69L36.64,37Zm31.9,18.51L72.67,48.43c-.21-.27-.46-.59-.76-1l-9-15.6H82.24ZM30,48.47C33.09,44.73,41.07,36.3,50.3,36.3s17.21,8.44,20.3,12.17L71.45,50c-2.18,2.78-10.92,13.24-21.12,13.24S31.33,52.73,29.16,50ZM21.86,72.39a.45.45,0,0,0,0-.61l-.31-.31a.42.42,0,0,0-.32-.13.44.44,0,0,0-.44.44v0a.42.42,0,0,0,.12.3l.29.29H14.94v-.21a.45.45,0,0,0-.9,0v.21H11.85l14-24.28,1.23,2.13-11.54,20H35.43l1.23,2.13Zm33.68,13.2h-.35a.45.45,0,0,0-.45.45.46.46,0,0,0,.29.42l-4.7,8.21-4.74-8.21a.42.42,0,0,0,.29-.42.45.45,0,0,0-.45-.45h-.35L37.79,73h0l-1.61-2.79h2.46L50.27,90.35,61.9,70.21h2.43L62.75,73h0Zm31-13.2v-.21a.45.45,0,0,0-.9,0v.21H79.4l.29-.29a.45.45,0,0,0,0-.63.42.42,0,0,0-.32-.13.48.48,0,0,0-.32.13l-.31.31a.45.45,0,0,0,0,.61H63.91l1.23-2.13H85l-11.56-20,1.23-2.13.2.34L88.72,72.4ZM78.74,28.1a.45.45,0,0,0,0,.61l.31.31a.45.45,0,0,0,.63-.63l-.29-.29h6.24v.21a.45.45,0,0,0,.9,0V28.1h2.19L76.33,49.59,75.1,47.46l10-17.23H65.16L63.93,28.1ZM45.07,14.89h.35a.45.45,0,0,0,.45-.45h0a.46.46,0,0,0-.29-.42l4.75-8.21L55.06,14a.42.42,0,0,0-.29.42.45.45,0,0,0,.45.45h.35l7.24,12.55h0l.29.5,1.32,2.29H62L50.33,10.09,38.7,30.23H36.24l.35-.6,1.26-2.18h0Zm-31,13.21v.21a.45.45,0,0,0,.9,0V28.1h6.24l-.29.29a.45.45,0,0,0,.63.63l.31-.31a.45.45,0,0,0,0-.61H36.68l-1.23,2.13H15.56l10,17.23-1.23,2.13L11.87,28.1Z" transform="translate(0 0)"/><path class="cls-2" d="M50.53,2A48.53,48.53,0,1,0,99.06,50.53h0A48.58,48.58,0,0,0,50.53,2Zm0,96.41A47.88,47.88,0,1,1,98.41,50.53,47.88,47.88,0,0,1,50.53,98.41Z" transform="translate(0 0)"/></svg>